<svg width="161" height="133" viewBox="0 0 145 100" fill="none"
     xmlns="http://www.w3.org/2000/svg">
    <path
            d="M79.0265 0C53.5521 0 32.4001 18.5245 28.2825 42.8504H10.2803C10.1052 42.8504 9.93717 42.7808 9.8133 42.6568C9.68944 42.5328 9.61985 42.3646 9.61985 42.1893V39.252C9.61976 39.0796 9.56863 38.9111 9.47292 38.7677C9.37721 38.6244 9.24121 38.5126 9.08209 38.4466C8.92297 38.3806 8.74788 38.3632 8.57891 38.3967C8.40994 38.4302 8.25468 38.5131 8.13273 38.6348L0.00111321 46.7752C-0.081421 46.8575 -0.146908 46.9553 -0.191592 47.063C-0.236276 47.1707 -0.259277 47.2862 -0.259277 47.4028C-0.259277 47.5194 -0.236276 47.6349 -0.191592 47.7426C-0.146908 47.8503 -0.081421 47.9481 0.00111321 48.0305L8.08152 56.1185C8.20745 56.2448 8.36796 56.3308 8.54274 56.3657C8.71752 56.4006 8.89871 56.3828 9.0634 56.3146C9.22809 56.2464 9.36886 56.1309 9.46791 55.9826C9.56697 55.8342 9.61984 55.6599 9.61985 55.4815V52.6163C9.61985 52.5295 9.63694 52.4436 9.67013 52.3633C9.70332 52.2831 9.75197 52.2103 9.8133 52.1489C9.87463 52.0875 9.94744 52.0388 10.0276 52.0056C10.1077 51.9723 10.1936 51.9552 10.2803 51.9552H32.5725C32.6239 51.9548 32.6751 51.9485 32.7251 51.9364H37.5324C37.5324 51.7973 37.5324 51.6582 37.5324 51.518C37.5324 28.5791 56.1094 9.98978 79.0213 9.98978C101.933 9.98978 120.515 28.5844 120.515 51.5232C120.515 74.4621 101.938 93.0514 79.0213 93.0514C57.8829 93.0514 40.4366 77.231 37.8564 56.7733H27.8206C30.451 82.7593 52.3722 103.036 79.0265 103.036C107.452 103.036 130.497 79.9706 130.497 51.5169C130.497 23.0633 107.453 0 79.0265 0Z"
            fill="url(#paint0_linear_0_1)"/>
    <path
            d="M79.2303 36.9211L70.4811 44.0257C69.0259 45.2038 68.7457 47.3243 69.8484 48.8376C71.0143 50.4507 73.283 50.7678 74.8466 49.5445L83.8218 42.5486C84.4545 42.0593 85.3583 42.168 85.8554 42.8024C86.3526 43.4367 86.2351 44.3429 85.6024 44.8413L83.7133 46.3093L96.2767 57.9086V40.7997H96.2135L95.861 40.5731L89.2991 36.3593C87.9162 35.4712 86.2983 35 84.6533 35C82.683 35 80.7668 35.6796 79.2303 36.9211ZM81.291 48.1942L76.6182 51.8371C73.7711 54.0664 69.6405 53.4864 67.5074 50.5503C65.5009 47.7864 66.0071 43.926 68.6553 41.7784L76.1753 35.6796C75.1268 35.2356 73.997 35.0091 72.8491 35.0091C71.1499 35 69.4959 35.5075 68.0769 36.4499L61.5692 40.7997V61.0985H64.118L72.3791 68.6561C74.1507 70.2782 76.8893 70.1514 78.5072 68.3752C79.0043 67.8224 79.3387 67.179 79.5105 66.5085L81.047 67.9221C82.8095 69.5442 85.5572 69.4264 87.175 67.6593C87.5818 67.2153 87.88 66.6988 88.0699 66.1641C89.8233 67.3422 92.2095 67.0975 93.6827 65.4845C95.3006 63.7174 95.1831 60.9625 93.4206 59.3404L81.291 48.1942ZM51.4461 40.7997C50.6508 40.7997 50 41.4521 50 42.2496V61.0985C50 62.7024 51.2925 63.9983 52.8923 63.9983H55.7846C57.3844 63.9983 58.6769 62.7024 58.6769 61.0985V40.7997H51.4461ZM54.3384 58.1986C54.722 58.1986 55.0898 58.3514 55.361 58.6233C55.6322 58.8952 55.7846 59.264 55.7846 59.6485C55.7846 60.0331 55.6322 60.4019 55.361 60.6738C55.0898 60.9457 54.722 61.0985 54.3384 61.0985C53.9549 61.0985 53.5871 60.9457 53.3159 60.6738C53.0447 60.4019 52.8923 60.0331 52.8923 59.6485C52.8923 59.264 53.0447 58.8952 53.3159 58.6233C53.5871 58.3514 53.9549 58.1986 54.3384 58.1986ZM99.169 40.7997V61.0985C99.169 62.7024 100.462 63.9983 102.061 63.9983H104.954C106.553 63.9983 107.846 62.7024 107.846 61.0985V42.2496C107.846 41.4521 107.195 40.7997 106.4 40.7997H99.169ZM102.061 59.6485C102.061 59.264 102.214 58.8952 102.485 58.6233C102.756 58.3514 103.124 58.1986 103.507 58.1986C103.891 58.1986 104.259 58.3514 104.53 58.6233C104.801 58.8952 104.954 59.264 104.954 59.6485C104.954 60.0331 104.801 60.4019 104.53 60.6738C104.259 60.9457 103.891 61.0985 103.507 61.0985C103.124 61.0985 102.756 60.9457 102.485 60.6738C102.214 60.4019 102.061 60.0331 102.061 59.6485Z"
            fill="url(#paint1_linear_0_1)"/>
    <defs>
        <linearGradient id="paint0_linear_0_1" x1="65.1188" y1="0" x2="65.1188" y2="103.036"
                        gradientUnits="userSpaceOnUse">
            <stop stop-color="#1F9F62"/>
            <stop offset="1" stop-color="#022739"/>
        </linearGradient>
        <linearGradient id="paint1_linear_0_1" x1="78.923" y1="35" x2="78.923" y2="69.7946"
                        gradientUnits="userSpaceOnUse">
            <stop stop-color="#1F9F62"/>
            <stop offset="1" stop-color="#022739"/>
        </linearGradient>
    </defs>
</svg>