<svg width="161" height="133" viewBox="0 0 145 100" fill="none"
     xmlns="http://www.w3.org/2000/svg">
    <path
            d="M79.0265 0C53.5521 0 32.4001 18.5245 28.2825 42.8504H10.2803C10.1052 42.8504 9.93717 42.7808 9.8133 42.6568C9.68944 42.5328 9.61985 42.3646 9.61985 42.1893V39.252C9.61976 39.0796 9.56863 38.9111 9.47292 38.7677C9.37721 38.6244 9.24121 38.5126 9.08209 38.4466C8.92297 38.3806 8.74788 38.3632 8.57891 38.3967C8.40994 38.4302 8.25468 38.5131 8.13273 38.6348L0.00111321 46.7752C-0.081421 46.8575 -0.146908 46.9553 -0.191592 47.063C-0.236276 47.1707 -0.259277 47.2862 -0.259277 47.4028C-0.259277 47.5194 -0.236276 47.6349 -0.191592 47.7426C-0.146908 47.8503 -0.081421 47.9481 0.00111321 48.0305L8.08152 56.1185C8.20745 56.2448 8.36796 56.3308 8.54274 56.3657C8.71752 56.4006 8.89871 56.3828 9.0634 56.3146C9.22809 56.2464 9.36886 56.1309 9.46791 55.9826C9.56697 55.8342 9.61984 55.6599 9.61985 55.4815V52.6163C9.61985 52.5295 9.63694 52.4436 9.67013 52.3633C9.70332 52.2831 9.75197 52.2103 9.8133 52.1489C9.87463 52.0875 9.94744 52.0388 10.0276 52.0056C10.1077 51.9723 10.1936 51.9552 10.2803 51.9552H32.5725C32.6239 51.9548 32.6751 51.9485 32.7251 51.9364H37.5324C37.5324 51.7973 37.5324 51.6582 37.5324 51.518C37.5324 28.5791 56.1094 9.98978 79.0213 9.98978C101.933 9.98978 120.515 28.5844 120.515 51.5232C120.515 74.4621 101.938 93.0514 79.0213 93.0514C57.8829 93.0514 40.4366 77.231 37.8564 56.7733H27.8206C30.451 82.7593 52.3722 103.036 79.0265 103.036C107.452 103.036 130.497 79.9706 130.497 51.5169C130.497 23.0633 107.453 0 79.0265 0Z"
            fill="url(#paint0_linear_0_1)"/>
    <path
            d="M57.9587 31C54.6721 31 52 33.6683 52 36.9503V39.9254H105.628V36.9503C105.628 33.6683 102.956 31 99.6693 31H57.9587ZM105.628 48.8509H52V66.7018C52 69.9838 54.6721 72.6521 57.9587 72.6521H99.6693C102.956 72.6521 105.628 69.9838 105.628 66.7018V48.8509ZM62.4277 60.7515H68.3863C69.2057 60.7515 69.876 61.4209 69.876 62.2391C69.876 63.0572 69.2057 63.7266 68.3863 63.7266H62.4277C61.6084 63.7266 60.938 63.0572 60.938 62.2391C60.938 61.4209 61.6084 60.7515 62.4277 60.7515ZM72.8553 62.2391C72.8553 61.4209 73.5257 60.7515 74.345 60.7515H86.2623C87.0817 60.7515 87.752 61.4209 87.752 62.2391C87.752 63.0572 87.0817 63.7266 86.2623 63.7266H74.345C73.5257 63.7266 72.8553 63.0572 72.8553 62.2391Z"
            fill="url(#paint1_linear_0_1)"/>
    <defs>
        <linearGradient id="paint0_linear_0_1" x1="65.1188" y1="0" x2="65.1188" y2="103.036"
                        gradientUnits="userSpaceOnUse">
            <stop stop-color="#0A5EB8"/>
            <stop offset="1" stop-color="#6BB5FF"/>
        </linearGradient>
        <linearGradient id="paint1_linear_0_1" x1="78.814" y1="31" x2="78.814" y2="72.6521"
                        gradientUnits="userSpaceOnUse">
            <stop stop-color="#6BB5FF"/>
            <stop offset="1" stop-color="#0A5EB8"/>
        </linearGradient>
    </defs>
</svg>