<svg width="161" height="133" viewBox="0 0 145 100" fill="none"
     xmlns="http://www.w3.org/2000/svg">
    <path
            d="M79.0265 0C53.5521 0 32.4001 18.5245 28.2825 42.8504H10.2803C10.1052 42.8504 9.93717 42.7808 9.8133 42.6568C9.68944 42.5328 9.61985 42.3646 9.61985 42.1893V39.252C9.61976 39.0796 9.56863 38.9111 9.47292 38.7677C9.37721 38.6244 9.24121 38.5126 9.08209 38.4466C8.92297 38.3806 8.74788 38.3632 8.57891 38.3967C8.40994 38.4302 8.25468 38.5131 8.13273 38.6348L0.00111321 46.7752C-0.081421 46.8575 -0.146908 46.9553 -0.191592 47.063C-0.236276 47.1707 -0.259277 47.2862 -0.259277 47.4028C-0.259277 47.5194 -0.236276 47.6349 -0.191592 47.7426C-0.146908 47.8503 -0.081421 47.9481 0.00111321 48.0305L8.08152 56.1185C8.20745 56.2448 8.36796 56.3308 8.54274 56.3657C8.71752 56.4006 8.89871 56.3828 9.0634 56.3146C9.22809 56.2464 9.36886 56.1309 9.46791 55.9826C9.56697 55.8342 9.61984 55.6599 9.61985 55.4815V52.6163C9.61985 52.5295 9.63694 52.4436 9.67013 52.3633C9.70332 52.2831 9.75197 52.2103 9.8133 52.1489C9.87463 52.0875 9.94744 52.0388 10.0276 52.0056C10.1077 51.9723 10.1936 51.9552 10.2803 51.9552H32.5725C32.6239 51.9548 32.6751 51.9485 32.7251 51.9364H37.5324C37.5324 51.7973 37.5324 51.6582 37.5324 51.518C37.5324 28.5791 56.1094 9.98978 79.0213 9.98978C101.933 9.98978 120.515 28.5844 120.515 51.5232C120.515 74.4621 101.938 93.0514 79.0213 93.0514C57.8829 93.0514 40.4366 77.231 37.8564 56.7733H27.8206C30.451 82.7593 52.3722 103.036 79.0265 103.036C107.452 103.036 130.497 79.9706 130.497 51.5169C130.497 23.0633 107.453 0 79.0265 0Z"
            fill="url(#paint0_linear_0_1)"/>
    <path
            d="M79.4164 78.8331C72.1451 78.8331 65.1716 75.9446 60.03 70.803C54.8884 65.6614 51.9999 58.6879 51.9999 51.4166C51.9999 44.1452 54.8884 37.1717 60.03 32.0301C65.1716 26.8885 72.1451 24 79.4164 24C86.6878 24 93.6613 26.8885 98.8029 32.0301C103.944 37.1717 106.833 44.1452 106.833 51.4166C106.833 58.6879 103.944 65.6614 98.8029 70.803C93.6613 75.9446 86.6878 78.8331 79.4164 78.8331ZM88.6481 41.703C87.8021 39.3147 85.5316 37.7083 82.9934 37.7083H76.7498C73.0121 37.7083 69.992 40.7391 69.992 44.466C69.992 46.8864 71.2879 49.1247 73.3869 50.3349L76.8461 52.3162C76.8676 53.7084 78.0135 54.8436 79.4164 54.8436C80.8408 54.8436 81.9867 53.6977 81.9867 52.2733V50.8275C81.9867 49.9065 81.4941 49.0605 80.6909 48.5999L75.9465 45.8797C75.4432 45.5905 75.1326 45.0551 75.1326 44.4767C75.1326 43.5771 75.8609 42.8596 76.7498 42.8596H82.9934C83.3576 42.8596 83.6789 43.0845 83.7967 43.4272L83.8395 43.5557C84.3107 44.8944 85.7887 45.5905 87.1166 45.1193C88.4446 44.6481 89.1515 43.1702 88.6802 41.8422L88.6374 41.7137L88.6481 41.703ZM82.8435 61.6978C82.8435 60.7889 82.4824 59.9172 81.8397 59.2745C81.197 58.6318 80.3254 58.2707 79.4164 58.2707C78.5075 58.2707 77.6358 58.6318 76.9931 59.2745C76.3504 59.9172 75.9894 60.7889 75.9894 61.6978C75.9894 62.6067 76.3504 63.4784 76.9931 64.1211C77.6358 64.7638 78.5075 65.1248 79.4164 65.1248C80.3254 65.1248 81.197 64.7638 81.8397 64.1211C82.4824 63.4784 82.8435 62.6067 82.8435 61.6978Z"
            fill="url(#paint1_linear_0_1)"/>
    <defs>
        <linearGradient id="paint0_linear_0_1" x1="65.1188" y1="0" x2="65.1188" y2="103.036"
                        gradientUnits="userSpaceOnUse">
            <stop stop-color="#1F9F62"/>
            <stop offset="1" stop-color="#022739"/>
        </linearGradient>
        <linearGradient id="paint1_linear_0_1" x1="79.4164" y1="24" x2="79.4164" y2="78.8331"
                        gradientUnits="userSpaceOnUse">
            <stop stop-color="#3AC4AD"/>
            <stop offset="1" stop-color="#023861"/>
        </linearGradient>
    </defs>
</svg>