<svg width="161" height="133" viewBox="0 0 145 100" fill="none"
     xmlns="http://www.w3.org/2000/svg">
    <path
            d="M78.9165 101.833C107.037 101.833 129.833 79.0369 129.833 50.9165C129.833 22.7961 107.037 0 78.9165 0C50.7961 0 28 22.7961 28 50.9165C28 79.0369 50.7961 101.833 78.9165 101.833Z"
            fill="url(#paint0_linear_0_1)"/>
    <g filter="url(#filter0_d_0_1)">
        <path
                d="M79.0049 92.5975C101.728 92.5975 120.149 74.1592 120.149 51.4145C120.149 28.6697 101.728 10.2314 79.0049 10.2314C56.2817 10.2314 37.8608 28.6697 37.8608 51.4145C37.8608 74.1592 56.2817 92.5975 79.0049 92.5975Z"
                fill="white"/>
    </g>
    <path
            d="M61.2307 27C57.2425 27 54 30.2425 54 34.2307V70.3845C54 74.3727 57.2425 77.6152 61.2307 77.6152H97.3845C101.373 77.6152 104.615 74.3727 104.615 70.3845V34.2307C104.615 30.2425 101.373 27 97.3845 27H61.2307ZM68.4615 48.6922C70.4612 48.6922 72.0769 50.3078 72.0769 52.3076V63.1537C72.0769 65.1535 70.4612 66.7691 68.4615 66.7691C66.4617 66.7691 64.8461 65.1535 64.8461 63.1537V52.3076C64.8461 50.3078 66.4617 48.6922 68.4615 48.6922ZM75.6922 41.4615C75.6922 39.4617 77.3078 37.8461 79.3076 37.8461C81.3073 37.8461 82.923 39.4617 82.923 41.4615V63.1537C82.923 65.1535 81.3073 66.7691 79.3076 66.7691C77.3078 66.7691 75.6922 65.1535 75.6922 63.1537V41.4615ZM90.1537 55.923C92.1535 55.923 93.7691 57.5386 93.7691 59.5383V63.1537C93.7691 65.1535 92.1535 66.7691 90.1537 66.7691C88.154 66.7691 86.5383 65.1535 86.5383 63.1537V59.5383C86.5383 57.5386 88.154 55.923 90.1537 55.923Z"
            fill="url(#paint1_linear_0_1)"/>
    <defs>
        <linearGradient id="paint0_linear_0_1" x1="78.9165" y1="0" x2="78.9165" y2="101.833"
                        gradientUnits="userSpaceOnUse">
            <stop stop-color="#2EC2CC"/>
            <stop offset="1" stop-color="#004181"/>
        </linearGradient>
        <linearGradient id="paint1_linear_0_1" x1="79.3076" y1="27" x2="79.3076" y2="77.6152"
                        gradientUnits="userSpaceOnUse">
            <stop stop-color="#2EC2CC"/>
            <stop offset="1" stop-color="#004181"/>
        </linearGradient>
    </defs>
</svg>